<?xml version="1.0" encoding="UTF-8"?>
<svg
   version="1.1"
   style="text-align:center"
   id="svg87"
   sodipodi:docname="AWG-Modecenter Logo 03.2022.svg"
  
  
   inkscape:version="1.1.1 (3bf5ae0d25, 2021-09-20)"
   xmlns:inkscape="http://www.inkscape.org/namespaces/inkscape"
   xmlns:sodipodi="http://sodipodi.sourceforge.net/DTD/sodipodi-0.dtd"
   xmlns="http://www.w3.org/2000/svg"
   xmlns:svg="http://www.w3.org/2000/svg" viewBox="0 0 921.25 322.63">
  <sodipodi:namedview
     id="namedview89"
     pagecolor="#ffffff"
     bordercolor="#111111"
     borderopacity="1"
     inkscape:pageshadow="0"
     inkscape:pageopacity="0"
     inkscape:pagecheckerboard="1"
     showgrid="false"
     fit-margin-top="0"
     fit-margin-left="0"
     fit-margin-right="0"
     fit-margin-bottom="0"
     inkscape:zoom="3.4674996"
     inkscape:cx="200.00002"
     inkscape:cy="69.935119"
     inkscape:window-width="1600"
     inkscape:window-height="837"
     inkscape:window-x="-8"
     inkscape:window-y="-8"
     inkscape:window-maximized="1"
     inkscape:current-layer="svg87" />
  <defs
     style="text-align:center"
     id="defs59" />
  <view
     id="view-symbol-arrow-cta"
     viewBox="0 0 64.29 50"
     style="block-size:auto;height:auto;inline-size:auto;overflow-x:visible;overflow-y:visible;perspective-origin:50% 50%;text-align:center;transform-origin:0px 0px;width:auto;" />
  <view
     id="view-symbol-cart"
     viewBox="100 0 47.83 50"
     style="block-size:auto;height:auto;inline-size:auto;overflow-x:visible;overflow-y:visible;perspective-origin:50% 50%;text-align:center;transform-origin:0px 0px;width:auto;" />
  <view
     id="view-symbol-delivery"
     viewBox="150 0 50 50"
     style="block-size:auto;height:auto;inline-size:auto;overflow-x:visible;overflow-y:visible;perspective-origin:50% 50%;text-align:center;transform-origin:0px 0px;width:auto;" />
  <view
     id="view-symbol-location"
     viewBox="200 0 41.67 50"
     style="block-size:auto;height:auto;inline-size:auto;overflow-x:visible;overflow-y:visible;perspective-origin:50% 50%;text-align:center;transform-origin:0px 0px;width:auto;" />
  <view
     id="view-symbol-login"
     viewBox="250 0 46 50"
     style="block-size:auto;height:auto;inline-size:auto;overflow-x:visible;overflow-y:visible;perspective-origin:50% 50%;text-align:center;transform-origin:0px 0px;width:auto;" />
  <view
     id="view-symbol-logo-50"
     viewBox="300 0 182.99 50"
     style="block-size:auto;height:auto;inline-size:auto;overflow-x:visible;overflow-y:visible;perspective-origin:50% 50%;text-align:center;transform-origin:0px 0px;width:auto;" />
  <view
     id="view-symbol-logo"
     viewBox="500 0 142.79 50"
     style="block-size:auto;height:auto;inline-size:auto;overflow-x:visible;overflow-y:visible;perspective-origin:50% 50%;text-align:center;transform-origin:0px 0px;width:auto;" />
  <view
     id="view-symbol-navigation"
     viewBox="650 0 50 50"
     style="block-size:auto;height:auto;inline-size:auto;overflow-x:visible;overflow-y:visible;perspective-origin:50% 50%;text-align:center;transform-origin:0px 0px;width:auto;" />
  <view
     id="view-symbol-product"
     viewBox="700 0 50 50"
     style="block-size:auto;height:auto;inline-size:auto;overflow-x:visible;overflow-y:visible;perspective-origin:50% 50%;text-align:center;transform-origin:0px 0px;width:auto;" />
  <view
     id="view-symbol-retoure"
     viewBox="750 0 50 50"
     style="block-size:auto;height:auto;inline-size:auto;overflow-x:visible;overflow-y:visible;perspective-origin:50% 50%;text-align:center;transform-origin:0px 0px;width:auto;" />
  <view
     id="view-symbol-search"
     viewBox="800 0 50 50"
     style="block-size:auto;height:auto;inline-size:auto;overflow-x:visible;overflow-y:visible;perspective-origin:50% 50%;text-align:center;transform-origin:0px 0px;width:auto;" />
  <view
     id="view-symbol-security"
     viewBox="850 0 50 50"
     style="block-size:auto;height:auto;inline-size:auto;overflow-x:visible;overflow-y:visible;perspective-origin:50% 50%;text-align:center;transform-origin:0px 0px;width:auto;" />
  <view
     id="view-symbol-wishlist"
     viewBox="900 0 50 50"
     style="block-size:auto;height:auto;inline-size:auto;overflow-x:visible;overflow-y:visible;perspective-origin:50% 50%;text-align:center;transform-origin:0px 0px;width:auto;" />
  <path
     d="m 163.35059,107.71836 c -1.90177,-3.2087 -3.03935,-4.98454 -3.25211,-12.5916 -0.21275,-7.60706 0.39078,-63.361791 0.10855,-73.491515 -0.28222,-10.129723 -2.84831,-15.9826447 -11.93162,-17.1723337 -9.08332,-1.189688 -15.52675,6.3913207 -21.81386,14.5150727 0,0 -49.328671,65.775896 -53.197331,69.870346 -3.86866,4.09444 -5.64451,6.94708 -12.252928,-2.87437 C 47.50789,65.94899 32.354547,69.39213 24.026737,70.95089 12.950467,73.03068 -6.0845525,92.53897 1.9045975,114.7436 10.002287,137.20441 29.979517,142.84892 49.288082,138.94117 69.5345,134.8424 87.931259,114.0706 94.044697,102.0695 99.919329,90.55036 111.1519,92.33055 117.30442,92.36963 c 7.91968,0.0477 15.05781,-1.91478 14.98834,10.02986 -0.0781,13.02579 0.86839,12.01846 3.19566,17.15062 2.17097,4.8239 13.09092,10.26433 21.10178,7.01222 14.36311,-5.85726 8.65781,-15.63963 6.76039,-18.84397 z M 132.25368,70.26487 c -0.026,0.90312 -0.15631,1.03338 -1.19403,1.0464 -1.03772,0.0133 -12.85645,0 -13.5338,0.0651 -0.67734,0.0652 -0.33432,-0.53405 -0.0912,-0.9943 1.26351,-2.40542 11.82308,-16.36908 11.82308,-16.36908 2.34899,-3.41275 3.14356,-4.11615 2.98725,3.17396 -0.1346,6.23936 0.0651,11.05456 0.009,13.07789 z M 294.09914,0.51175524 C 283.82179,-1.7938097 276.57511,4.2631833 274.74281,7.3025333 269.26329,16.47269 272.7021,24.388029 272.7846,24.561707 c 2.527,5.462148 1.04206,6.925378 -1.16364,10.620361 -2.2057,3.694982 -12.10096,19.786182 -13.92457,22.565002 -1.82361,2.77884 -3.64288,5.60545 -3.59511,-2.26648 0.0478,-7.87192 -0.18671,-26.407618 -0.19105,-32.651314 0,-9.951705 -12.52647,-17.2939077 -24.07166,0.38209 0,0 -19.77316,30.445614 -21.59677,33.211424 -1.82361,2.76581 -3.10882,5.23203 -3.30855,-2.09282 -0.19973,-7.32483 0,-14.76255 -0.12591,-19.66025 -0.12591,-4.897696 1.81059,-7.264049 3.36934,-9.751975 1.55875,-2.487927 6.00489,-8.583997 1.2114,-14.9666337 -4.79349,-6.382637 -10.77667,-6.47816 -14.27193,-5.301497 -3.49525,1.176663 -10.75061,3.86866 -15.63094,13.2385457 -4.88033,9.369885 -4.15957,25.87356 -4.15957,25.87356 -0.0955,6.36093 -0.14763,57.78242 -0.10855,63.80032 0.0608,9.23095 1.03338,17.36773 8.419,19.31292 7.38562,1.94518 11.08495,-1.66731 14.21114,-6.36962 3.12619,-4.70231 22.37396,-34.56611 24.19758,-37.3406 2.6616,-4.03366 2.37069,-3.90773 2.21004,1.30257 -0.14329,4.61548 0.12157,23.61143 0.30393,30.11998 0.0912,3.29118 -0.13894,12.15741 8.88793,13.51208 7.63312,1.14193 13.36881,-4.08575 16.98998,-10.42063 2.30991,-4.04668 19.14357,-31.95226 32.3387,-53.89638 7.52022,-12.5091 13.8551,-23.0817 15.63095,-26.18618 0,0 7.64179,-11.527824 7.91533,-17.871384 C 306.58653,13.646093 304.8541,2.9345523 294.10782,0.52043924 Z M 307.6503,38.32128 c -6.20462,10.21222 -13.63366,30.06787 -12.66975,45.0649 0.96391,14.99702 2.85699,24.35388 10.13406,32.13028 7.27708,7.7764 18.44018,12.1574 32.19108,11.94465 13.75088,-0.21275 22.04832,-1.34166 28.62199,-5.69227 6.57369,-4.35061 7.71562,-8.9053 10.04723,-16.02606 2.33163,-7.12077 5.02796,-14.2589 6.99052,-21.73571 1.96254,-7.47679 1.62822,-12.89552 -1.73678,-16.42552 -3.36499,-3.52998 -5.88765,-3.47354 -11.85781,-3.28684 -5.97015,0.18671 -7.96744,-0.13459 -10.67246,0.1216 -2.70503,0.25617 -7.40733,0.56879 -9.83013,4.43746 -2.4228,3.86866 -3.33461,7.81547 -1.92348,10.55523 1.77151,3.43446 2.60515,3.63853 4.07707,5.04098 1.47191,1.40245 2.17096,3.28684 -0.0781,6.79077 -2.24911,3.50395 -4.95848,3.94248 -10.93732,3.74709 -5.97884,-0.19538 -11.84913,-2.92646 -13.65103,-9.21358 -1.8019,-6.28711 1.68467,-17.23745 3.2,-21.27545 1.51534,-4.03799 8.68386,-19.45619 12.53515,-24.24534 4.15523,-5.162556 7.61141,-7.95876 14.03747,-9.261338 4.34193,-0.868386 4.25509,2.605158 5.04098,5.466491 1.33731,4.897697 4.64586,10.715887 8.80543,13.373147 5.49254,3.51262 14.44995,5.77042 22.1699,0.39511 10.04288,-6.98616 9.20923,-22.521589 4.42443,-29.420917 -4.16828,-6.043993 -15.479,-18.0320617 -40.7664,-14.6062797 -23.17289,3.139216 -33.96258,15.2532007 -36.60247,17.8583587 -2.6399,2.605159 -7.74167,8.002178 -11.54954,14.263238 z"
     fill="#e20613"
     style="d:path('M 376.23 248.09 C 371.85 240.7 369.23 236.61 368.74 219.09 S 369.64 73.16 368.99 49.83 S 362.43 13.02 341.51 10.28 S 305.75 25 291.27 43.71 C 291.27 43.71 177.66 195.2 168.75 204.63 S 155.75 220.63 140.53 198.01 C 109.43 151.89 74.53 159.82 55.35 163.41 C 29.84 168.2 -14 213.13 4.4 264.27 C 23.05 316 69.06 329 113.53 320 C 160.16 310.56 202.53 262.72 216.61 235.08 C 230.14 208.55 256.01 212.65 270.18 212.74 C 288.42 212.85 304.86 208.33 304.7 235.84 C 304.52 265.84 306.7 263.52 312.06 275.34 C 317.06 286.45 342.21 298.98 360.66 291.49 C 393.74 278 380.6 255.47 376.23 248.09 Z M 304.61 161.83 C 304.55 163.91 304.25 164.21 301.86 164.24 S 272.25 164.24 270.69 164.39 S 269.92 163.16 270.48 162.1 C 273.39 156.56 297.71 124.4 297.71 124.4 C 303.12 116.54 304.95 114.92 304.59 131.71 C 304.28 146.08 304.74 157.17 304.61 161.83 Z M 677.36 1.18 C 653.69 -4.13 637 9.82 632.78 16.82 C 620.16 37.94 628.08 56.17 628.27 56.57 C 634.09 69.15 630.67 72.52 625.59 81.03 S 597.72 126.6 593.52 133 S 585.13 145.91 585.24 127.78 S 584.81 66.96 584.8 52.58 C 584.8 29.66 555.95 12.75 529.36 53.46 C 529.36 53.46 483.82 123.58 479.62 129.95 S 472.46 142 472 125.13 S 472 91.13 471.71 79.85 S 475.88 63.12 479.47 57.39 S 493.3 37.62 482.26 22.92 S 457.44 8 449.39 10.71 S 424.63 19.62 413.39 41.2 S 403.81 100.79 403.81 100.79 C 403.59 115.44 403.47 233.87 403.56 247.73 C 403.7 268.99 405.94 287.73 422.95 292.21 S 448.48 288.37 455.68 277.54 S 507.21 197.93 511.41 191.54 C 517.54 182.25 516.87 182.54 516.5 194.54 C 516.17 205.17 516.78 248.92 517.2 263.91 C 517.41 271.49 516.88 291.91 537.67 295.03 C 555.25 297.66 568.46 285.62 576.8 271.03 C 582.12 261.71 620.89 197.44 651.28 146.9 C 668.6 118.09 683.19 93.74 687.28 86.59 C 687.28 86.59 704.88 60.04 705.51 45.43 C 706.12 31.43 702.13 6.76 677.38 1.2 Z M 708.57 88.26 C 694.28 111.78 677.17 157.51 679.39 192.05 S 685.97 248.14 702.73 266.05 S 745.2 294.05 776.87 293.56 S 827.65 290.47 842.79 280.45 S 860.56 259.94 865.93 243.54 S 877.51 210.7 882.03 193.48 S 885.78 163.78 878.03 155.65 S 864.47 147.65 850.72 148.08 S 832.37 147.77 826.14 148.36 S 809.08 149.67 803.5 158.58 S 795.82 176.58 799.07 182.89 C 803.15 190.8 805.07 191.27 808.46 194.5 S 813.46 202.07 808.28 210.14 S 796.86 219.22 783.09 218.77 S 755.8 212.03 751.65 197.55 S 755.53 157.85 759.02 148.55 S 779.02 103.74 787.89 92.71 C 797.46 80.82 805.42 74.38 820.22 71.38 C 830.22 69.38 830.02 77.38 831.83 83.97 C 834.91 95.25 842.53 108.65 852.11 114.77 C 864.76 122.86 885.39 128.06 903.17 115.68 C 926.3 99.59 924.38 63.81 913.36 47.92 C 903.76 34 877.71 6.39001 819.47 14.28 C 766.1 21.51 741.25 49.41 735.17 55.41 S 717.34 73.84 708.57 88.26 Z');text-align:center;fill:#e20613;stroke-width:0.434193"
     id="path1365" />
</svg>
